<svg xmlns="http://www.w3.org/2000/svg" viewBox="0 0 358.51 85.76"><defs><style>.cls-1{fill:#fff;}.cls-2{fill:#f69330;}</style></defs><g id="Layer_2" data-name="Layer 2"><g id="Layer_1-2" data-name="Layer 1"><path class="cls-1" d="M0,60.12V47.85H1.87l5.61,8.46h.1V47.85H9.66V60.12H7.79l-5.62-8.5H2.08v8.5Z"/><path class="cls-1" d="M18.42,59.85V58.46h-.11a2.78,2.78,0,0,1-2.67,1.48c-2.1,0-3.65-1.5-3.65-4.16V54.65c0-2.67,1.54-4.18,3.64-4.18a2.81,2.81,0,0,1,2.73,1.59h.1V50.6h2.07V60c0,2.69-2,3.7-4.4,3.7-2.66,0-3.85-1.28-3.95-2.74h2.09c.14.63.85,1.06,1.93,1.06A2,2,0,0,0,18.42,59.85Zm-4.28-5v.78c0,1.6.92,2.61,2.21,2.61a2.15,2.15,0,0,0,2.07-2.41V54.69a2.19,2.19,0,0,0-2.09-2.45C15,52.24,14.14,53.26,14.14,54.87Z"/><path class="cls-1" d="M22.62,57.36c0-1.7,1.17-2.83,3.37-2.83h2.38v-.87c0-1-.66-1.5-1.72-1.5s-1.52.43-1.66,1H23c.11-1.58,1.27-2.75,3.73-2.75,2.07,0,3.78.85,3.78,3.25v6.42h-2V58.9h-.1a2.81,2.81,0,0,1-2.62,1.37A2.85,2.85,0,0,1,22.62,57.36Zm3.6-8.3L23.7,45.89h2l2.13,3.17Zm2.15,7.87v-1h-2c-1.13,0-1.63.56-1.63,1.32a1.47,1.47,0,0,0,1.66,1.4A1.81,1.81,0,0,0,28.37,56.93Z"/><path class="cls-1" d="M38,59.93l-.24.64c-.61,1.65-1.43,3-3.72,3a7.39,7.39,0,0,1-1.21-.09V61.82a5.21,5.21,0,0,0,.76.06,1.55,1.55,0,0,0,1.78-1.33l.1-.38L32.11,50.6h2.35l2.19,7.59h.09L39,50.6h2.26S38,59.85,38,59.93Z"/><path class="cls-1" d="M46.94,47.2h2.12v5.09h.11A2.78,2.78,0,0,1,52,50.45a3,3,0,0,1,3.17,3.28v6.39H53.09V54.34c0-1.43-.79-2.05-1.87-2.05-1.36,0-2.16,1-2.16,2.53v5.3H46.94Z"/><path class="cls-1" d="M66,54.77v1.14a4.28,4.28,0,1,1-8.55,0V54.78a4.09,4.09,0,0,1,4.28-4.35A4,4,0,0,1,66,54.77Zm-5-8.93h1.49l2.17,3.25h-1.7l-1.2-2h-.06l-1.29,2H58.69Zm-1.39,9v1c0,1.5.7,2.68,2.14,2.68s2.12-1.18,2.12-2.68v-1c0-1.52-.73-2.68-2.12-2.68S59.56,53.33,59.56,54.84Zm2.14,6.39a1.11,1.11,0,0,1,1.14,1.13,1.08,1.08,0,0,1-1.14,1.1,1,1,0,0,1-1.1-1.1A1.07,1.07,0,0,1,61.7,61.23Z"/><path class="cls-1" d="M69.49,46.49a1.27,1.27,0,1,1-1.37,1.27A1.27,1.27,0,0,1,69.49,46.49Zm-1,4.11h2.12v9.52H68.44Z"/><path class="cls-1" d="M76.92,54.69a3.93,3.93,0,0,1,4.16-4.26c2.46,0,3.79,1.52,3.83,3.23h-2a1.66,1.66,0,0,0-1.8-1.47c-1.34,0-2.07,1-2.07,2.54V56c0,1.57.79,2.51,2.08,2.51s1.71-.63,1.84-1.32h2c0,1.84-1.45,3.13-3.89,3.13s-4.15-1.6-4.15-4.32Z"/><path class="cls-1" d="M87.13,47.2h2.12v5.09h.11a2.79,2.79,0,0,1,2.87-1.84,3,3,0,0,1,3.17,3.28v6.39H93.28V54.34c0-1.43-.79-2.05-1.87-2.05-1.36,0-2.16,1-2.16,2.53v5.3H87.13Z"/><path class="cls-1" d="M106.21,60.12h-2.08V58.54H104a2.8,2.8,0,0,1-2.81,1.73A2.87,2.87,0,0,1,98,57.08V50.6h2.12v5.94a1.67,1.67,0,0,0,1.84,1.9,2,2,0,0,0,2.12-2V50.6h2.13Z"/><path class="cls-1" d="M113.9,59.93l-.24.64c-.61,1.65-1.43,3-3.73,3a7.35,7.35,0,0,1-1.2-.09V61.82a5.18,5.18,0,0,0,.75.06,1.56,1.56,0,0,0,1.79-1.33l.09-.38L108,50.6h2.35l2.18,7.59h.09l2.22-7.59h2.25S113.92,59.85,113.9,59.93Z"/><path class="cls-1" d="M118.25,56V54.75a4.13,4.13,0,1,1,8.25,0v1.11h-6.15v.46a2.07,2.07,0,0,0,2.15,2.25c1,0,1.73-.48,1.85-1.07h2.05c-.11,1.14-1.28,2.79-3.89,2.79A4,4,0,0,1,118.25,56Zm3.24-8.64h1.79l2.34,2.06h-1.87l-1.32-1.13h-.1L121,49.38h-1.91Zm2.94,7.16v-.1a2.05,2.05,0,1,0-4.08,0v.1Zm-.55-9.4a5,5,0,0,1,.87-.08c1.09,0,1.8.48,1.8,1.39A1.9,1.9,0,0,1,125.46,48l-.67-.71c.29-.19.49-.39.49-.67S125,46,124.49,46a2.58,2.58,0,0,0-.61.06Z"/><path class="cls-1" d="M128.74,50.6h2.08v1.69h.1a2.71,2.71,0,0,1,2.85-1.84,3,3,0,0,1,3.2,3.27v6.4h-2.12v-5.8c0-1.42-.75-2-1.83-2-1.4,0-2.16,1-2.16,2.53v5.3h-2.12Z"/><path class="cls-1" d="M149.46,59.85V58.46h-.11a2.78,2.78,0,0,1-2.67,1.48c-2.09,0-3.65-1.5-3.65-4.16V54.65c0-2.67,1.55-4.18,3.64-4.18a2.83,2.83,0,0,1,2.74,1.59h.1V50.6h2.06V60c0,2.69-2,3.7-4.39,3.7-2.67,0-3.85-1.28-4-2.74h2.08c.14.63.85,1.06,1.94,1.06A2,2,0,0,0,149.46,59.85Zm-4.27-5v.78c0,1.6.92,2.61,2.2,2.61a2.14,2.14,0,0,0,2.07-2.41V54.69a2.19,2.19,0,0,0-2.09-2.45C146,52.24,145.19,53.26,145.19,54.87Z"/><path class="cls-1" d="M155.41,46.49a1.27,1.27,0,1,1,0,2.53,1.27,1.27,0,1,1,0-2.53Zm-1,4.11h2.12v9.52h-2.12Z"/><path class="cls-1" d="M158.89,57.36c0-1.7,1.17-2.83,3.37-2.83h2.38v-.87c0-1-.66-1.5-1.72-1.5s-1.52.43-1.66,1h-2c.11-1.58,1.27-2.75,3.73-2.75,2.07,0,3.78.85,3.78,3.25v6.42h-2V58.9h-.1A2.81,2.81,0,0,1,162,60.27,2.85,2.85,0,0,1,158.89,57.36Zm5.75-.43v-1h-2c-1.13,0-1.63.56-1.63,1.32a1.47,1.47,0,0,0,1.66,1.4A1.81,1.81,0,0,0,164.64,56.93Z"/><path class="cls-1" d="M177.52,54.77v1.14a4.28,4.28,0,1,1-8.55,0V54.78a4.09,4.09,0,0,1,4.28-4.35A4,4,0,0,1,177.52,54.77Zm-6.41.07v1c0,1.5.7,2.68,2.14,2.68s2.12-1.18,2.12-2.68v-1c0-1.52-.74-2.68-2.12-2.68S171.11,53.33,171.11,54.84Z"/><path class="cls-1" d="M183.24,54.69a3.93,3.93,0,0,1,4.16-4.26c2.46,0,3.79,1.52,3.83,3.23h-2a1.66,1.66,0,0,0-1.8-1.47c-1.34,0-2.07,1-2.07,2.54V56c0,1.57.79,2.51,2.08,2.51s1.71-.63,1.84-1.32h2c-.05,1.84-1.45,3.13-3.89,3.13s-4.15-1.6-4.15-4.32Z"/><path class="cls-1" d="M201.53,54.77v1.14a4.28,4.28,0,1,1-8.56,0V54.78a4.09,4.09,0,0,1,4.28-4.35A4,4,0,0,1,201.53,54.77Zm-5-8.93H198l2.17,3.25h-1.7l-1.2-2h-.06l-1.29,2h-1.67Zm-1.39,9v1c0,1.5.7,2.68,2.14,2.68s2.13-1.18,2.13-2.68v-1c0-1.52-.74-2.68-2.13-2.68S195.11,53.33,195.11,54.84Z"/><path class="cls-1" d="M203.8,50.6h2.08v1.69h.1a2.71,2.71,0,0,1,2.86-1.84A2.94,2.94,0,0,1,212,53.72v6.4h-2.12v-5.8c0-1.42-.75-2-1.83-2-1.4,0-2.16,1-2.16,2.53v5.3H203.8Z"/><path class="cls-1" d="M220.63,59.85V58.46h-.11a2.78,2.78,0,0,1-2.67,1.48c-2.1,0-3.66-1.5-3.66-4.16V54.65c0-2.67,1.55-4.18,3.65-4.18a2.81,2.81,0,0,1,2.73,1.59h.1V50.6h2.07V60c0,2.69-2,3.7-4.4,3.7-2.66,0-3.85-1.28-4-2.74h2.09c.13.63.84,1.06,1.93,1.06A2,2,0,0,0,220.63,59.85Zm-4.28-5v.78c0,1.6.92,2.61,2.21,2.61a2.15,2.15,0,0,0,2.07-2.41V54.69a2.2,2.2,0,0,0-2.09-2.45C217.2,52.24,216.35,53.26,216.35,54.87Z"/><path class="cls-1" d="M229.23,50.6h2.08v1.69h.11a2.69,2.69,0,0,1,2.85-1.84,2.94,2.94,0,0,1,3.19,3.27v6.4h-2.12v-5.8c0-1.42-.75-2-1.83-2-1.4,0-2.15,1-2.15,2.53v5.3h-2.13Z"/><path class="cls-1" d="M246.06,59.85V58.46H246a2.78,2.78,0,0,1-2.67,1.48c-2.1,0-3.65-1.5-3.65-4.16V54.65c0-2.67,1.55-4.18,3.64-4.18A2.83,2.83,0,0,1,246,52.06h.09V50.6h2.07V60c0,2.69-2,3.7-4.4,3.7-2.66,0-3.84-1.28-3.94-2.74h2.08c.14.63.85,1.06,1.94,1.06A2,2,0,0,0,246.06,59.85Zm-4.27-5v.78c0,1.6.91,2.61,2.2,2.61a2.15,2.15,0,0,0,2.07-2.41V54.69A2.19,2.19,0,0,0,244,52.24C242.63,52.24,241.79,53.26,241.79,54.87Z"/><path class="cls-1" d="M251,47.2h2.12v5.09h.11a2.79,2.79,0,0,1,2.87-1.84,3,3,0,0,1,3.17,3.28v6.39h-2.12V54.34c0-1.43-.79-2.05-1.87-2.05-1.36,0-2.16,1-2.16,2.53v5.3H251Z"/><path class="cls-1" d="M261.46,56V54.75a4.13,4.13,0,1,1,8.25,0v1.11h-6.15v.46a2.07,2.07,0,0,0,2.15,2.25c1,0,1.72-.48,1.85-1.07h2.05c-.11,1.14-1.28,2.79-3.89,2.79A4,4,0,0,1,261.46,56Zm3.36-10.12h1.49l2.17,3.25h-1.7l-1.2-2h-.06l-1.29,2h-1.67Zm2.82,8.64v-.1a2.05,2.05,0,1,0-4.08,0v.1Zm-2.07,6.75a1.11,1.11,0,0,1,1.14,1.13,1.08,1.08,0,0,1-1.14,1.1,1,1,0,0,1-1.1-1.1A1.07,1.07,0,0,1,265.57,61.23Z"/><path class="cls-1" d="M278,60.12h-2.13V47.2H278v7.45h.09l3.39-4h2.42l-3.57,4.12,3.8,5.4h-2.49L278.72,56l-.73.78Z"/><path class="cls-1" d="M290.68,59.93l-.24.64c-.61,1.65-1.43,3-3.72,3a7.39,7.39,0,0,1-1.21-.09V61.82a5.21,5.21,0,0,0,.76.06,1.55,1.55,0,0,0,1.78-1.33l.1-.38-3.36-9.57h2.35l2.19,7.59h.09l2.21-7.59h2.26S290.7,59.85,290.68,59.93Zm-2.27-11.47c-.49,0-.61.53-.63,1h-1.24c0-1.29.62-2.42,1.78-2.42a1.58,1.58,0,0,1,1.37.72c.23.28.37.6.77.6s.6-.65.63-1.15h1.23c0,1.26-.76,2.43-1.79,2.43a1.53,1.53,0,0,1-1.37-.68A.93.93,0,0,0,288.41,48.46Z"/><path class="cls-1" d="M300.24,48.31h2.07v2.37h2.14v1.71h-2.14V57.2c0,1,.4,1.28,1.44,1.28.28,0,.63,0,.79,0v1.65a10.43,10.43,0,0,1-1.31.1c-2.34,0-3-.82-3-2.76v-5h-1.45V50.68h1.48Z"/><path class="cls-1" d="M306.68,47.2h2.12v5.09h.11a2.78,2.78,0,0,1,2.87-1.84A3,3,0,0,1,315,53.73v6.39h-2.12V54.34c0-1.43-.79-2.05-1.87-2.05-1.36,0-2.16,1-2.16,2.53v5.3h-2.12Z"/><path class="cls-1" d="M325.76,60.12h-2.09V58.54h-.11a2.81,2.81,0,0,1-2.81,1.73,2.87,2.87,0,0,1-3.2-3.19V50.6h2.12v5.94a1.66,1.66,0,0,0,1.84,1.9,2,2,0,0,0,2.12-2V50.6h2.13Z"/><path class="cls-1" d="M328,57.36c0-1.7,1.18-2.83,3.37-2.83h2.39v-.87c0-1-.67-1.5-1.72-1.5s-1.52.43-1.66,1h-2c.12-1.58,1.28-2.75,3.73-2.75,2.07,0,3.78.85,3.78,3.25v6.42h-2V58.9h-.1A3.16,3.16,0,0,1,328,57.36Zm3.4-11.52h1.49L335,49.09h-1.7l-1.19-2h-.07l-1.28,2H329.1Zm2.36,11.09v-1h-2c-1.12,0-1.63.56-1.63,1.32,0,.94.8,1.4,1.67,1.4A1.81,1.81,0,0,0,333.72,56.93Zm-1.6,4.3a1.1,1.1,0,0,1,1.13,1.13,1.07,1.07,0,0,1-1.13,1.1,1.06,1.06,0,0,1-1.11-1.1A1.08,1.08,0,0,1,332.12,61.23Z"/><path class="cls-1" d="M339.09,48.31h2.07v2.37h2.14v1.71h-2.14V57.2c0,1,.4,1.28,1.44,1.28.28,0,.63,0,.79,0v1.65a10.43,10.43,0,0,1-1.31.1c-2.34,0-3-.82-3-2.76v-5h-1.45V50.68h1.48Z"/><path class="cls-1" d="M96.05,70.4h2.07v2.37h2.13v1.71H98.12v4.81c0,1,.4,1.28,1.44,1.28.28,0,.63,0,.79,0v1.65a8.92,8.92,0,0,1-1.31.1c-2.34,0-3-.82-3-2.75v-5H94.57V72.77h1.48Z"/><path class="cls-1" d="M102.56,72.69h2.13v1.49h.1a2.44,2.44,0,0,1,2.47-1.63,3.37,3.37,0,0,1,.7.06v1.92a3.46,3.46,0,0,0-.88-.08,2.09,2.09,0,0,0-2.35,2.21v5.56h-2.17Z"/><path class="cls-1" d="M117.75,76.86V78a4.28,4.28,0,1,1-8.55,0V76.87a4.09,4.09,0,0,1,4.28-4.35A4,4,0,0,1,117.75,76.86Zm-6.41.08v1c0,1.5.7,2.68,2.14,2.68s2.13-1.18,2.13-2.68v-1c0-1.52-.74-2.69-2.13-2.69S111.34,75.43,111.34,76.94Z"/><path class="cls-1" d="M120,72.69h2.08v1.69h.1a2.72,2.72,0,0,1,2.86-1.83,2.93,2.93,0,0,1,3.19,3.26v6.41h-2.12V76.41c0-1.42-.75-2-1.83-2-1.4,0-2.16,1.05-2.16,2.53v5.31H120Z"/><path class="cls-1" d="M136.85,82v-1.4h-.1A2.79,2.79,0,0,1,134.08,82c-2.1,0-3.66-1.51-3.66-4.17V76.74c0-2.66,1.55-4.17,3.65-4.17a2.8,2.8,0,0,1,2.73,1.58h.1V72.69H139v9.37c0,2.69-2,3.7-4.4,3.7-2.66,0-3.85-1.28-3.95-2.73h2.09c.13.63.84,1.06,1.93,1.06A2,2,0,0,0,136.85,82Zm-4.27-5v.79c0,1.6.92,2.6,2.21,2.6a2.14,2.14,0,0,0,2.06-2.41V76.78a2.19,2.19,0,0,0-2.08-2.45C133.43,74.33,132.58,75.35,132.58,77Z"/><path class="cls-1" d="M148.62,82.34c-2.16,0-3.59-1.54-3.59-4.13V76.68c0-2.54,1.41-4.12,3.63-4.12a2.69,2.69,0,0,1,2.72,1.56h.11V71.83h-2.17V70.47h2.23V69h2v1.48h1.17v1.36h-1.12V82.22h-2.08V80.7h-.1A2.76,2.76,0,0,1,148.62,82.34ZM147.2,77v1c0,1.71.83,2.63,2.13,2.63s2.16-.94,2.16-2.52V76.72a2.18,2.18,0,0,0-2.2-2.38C148,74.34,147.2,75.27,147.2,77Z"/><path class="cls-1" d="M157.6,68.58a1.27,1.27,0,1,1,0,2.53,1.27,1.27,0,1,1,0-2.53Zm-1,4.11h2.12v9.53h-2.12Z"/><path class="cls-1" d="M161.14,78.05v-1.2a4.13,4.13,0,1,1,8.25,0V78h-6.16v.46a2.07,2.07,0,0,0,2.15,2.25c1,0,1.73-.48,1.86-1.07h2c-.11,1.14-1.28,2.79-3.9,2.79A4,4,0,0,1,161.14,78.05Zm3.24-8.63h1.79l2.34,2h-1.88l-1.32-1.13h-.1l-1.32,1.13H162Zm2.94,7.16v-.11a2.06,2.06,0,1,0-4.09,0v.11Zm.83-6.84-2.33-2.24h1.81l2,2.24Z"/><path class="cls-1" d="M179.77,82.22h-2.08V80.63h-.12a2.8,2.8,0,0,1-2.81,1.73,2.87,2.87,0,0,1-3.2-3.18V72.69h2.12v5.94a1.67,1.67,0,0,0,1.84,1.9,2,2,0,0,0,2.12-2V72.69h2.13Z"/><path class="cls-1" d="M187,70.4h2.07v2.37h2.13v1.71h-2.13v4.81c0,1,.39,1.28,1.44,1.28.28,0,.63,0,.79,0v1.65a8.92,8.92,0,0,1-1.31.1c-2.34,0-3-.82-3-2.75v-5h-1.44V72.77H187Z"/><path class="cls-1" d="M193.55,72.69h2.12v1.49h.11a2.44,2.44,0,0,1,2.47-1.63,3.37,3.37,0,0,1,.7.06v1.92a3.46,3.46,0,0,0-.88-.08,2.09,2.09,0,0,0-2.35,2.21v5.56h-2.17Z"/><path class="cls-1" d="M202,68.58a1.27,1.27,0,1,1-1.37,1.27A1.27,1.27,0,0,1,202,68.58Zm0,14.74a1.1,1.1,0,0,1,1.13,1.14A1.07,1.07,0,0,1,202,85.55a1.06,1.06,0,0,1-1.11-1.09A1.08,1.08,0,0,1,202,83.32Zm-1.06-10.63H203v9.53h-2.12Z"/><path class="cls-1" d="M218.38,71.83v3.29a.82.82,0,0,1-.28.62.91.91,0,0,1-.67.22c-.65,0-.8.29-.84.38a3.63,3.63,0,0,0-.24,1.56V82a.85.85,0,0,1-.88.84H213a3,3,0,0,0,.31-.48h2.14a.37.37,0,0,0,.37-.36V77.9a4.08,4.08,0,0,1,.28-1.77,1.36,1.36,0,0,1,1.33-.65.44.44,0,0,0,.3-.1.35.35,0,0,0,.11-.26V71.83a.38.38,0,0,0-.34-.36l-.33,0h-.6a5.93,5.93,0,0,0-1.68.24h-.06a4.24,4.24,0,0,0-2.41,2.19,8,8,0,0,0-.58,3.29V78.8a2.29,2.29,0,0,0-.51-.15V77.17a8.39,8.39,0,0,1,.62-3.49,4.7,4.7,0,0,1,2.69-2.44l.1,0a6.63,6.63,0,0,1,1.83-.26h.62l.35,0A.87.87,0,0,1,218.38,71.83Z"/><path class="cls-1" d="M229.75,82.83h-3.23a.86.86,0,0,1-.89-.84V76.91a2.28,2.28,0,0,0-.1-.79.53.53,0,0,0-1,0,3,3,0,0,0-.1.88V82a.86.86,0,0,1-.89.84h-3.09a.86.86,0,0,1-.89-.84V67.62a.87.87,0,0,1,.89-.84h3.09a.87.87,0,0,1,.89.84V71a.36.36,0,0,0,.18.3.38.38,0,0,0,.36,0,4,4,0,0,1,1.72-.4,4.17,4.17,0,0,1,1,.11,4.27,4.27,0,0,1,.92.33.2.2,0,0,0,.08,0,3.77,3.77,0,0,1,1.6,1.84,6.43,6.43,0,0,1,.38,2.37V82A.86.86,0,0,1,229.75,82.83ZM225,75.3a1,1,0,0,1,1,.64,2.69,2.69,0,0,1,.13,1V82a.37.37,0,0,0,.38.36h3.23a.37.37,0,0,0,.37-.36V75.64a6,6,0,0,0-.34-2.2,3.17,3.17,0,0,0-1.39-1.59l0,0a4.34,4.34,0,0,0-.8-.29,3.7,3.7,0,0,0-.85-.09,3.56,3.56,0,0,0-1.49.34.9.9,0,0,1-.86,0,.82.82,0,0,1-.42-.71V67.62a.37.37,0,0,0-.38-.35h-3.09a.37.37,0,0,0-.38.35V82a.37.37,0,0,0,.38.36h3.09a.37.37,0,0,0,.38-.36V77a3.43,3.43,0,0,1,.12-1A1,1,0,0,1,225,75.3Z"/><path class="cls-1" d="M247.94,82.83H245a.86.86,0,0,1-.89-.84V77a3.47,3.47,0,0,0-.09-1,.61.61,0,0,0-.64-.39c-.42,0-.54.17-.6.31a2.78,2.78,0,0,0-.18,1.07V82a.85.85,0,0,1-.88.84h-2.88A.86.86,0,0,1,238,82V77a3.47,3.47,0,0,0-.09-1,.61.61,0,0,0-.64-.39c-.42,0-.54.17-.6.31a2.79,2.79,0,0,0-.17,1.07V82a.86.86,0,0,1-.89.84h-2.87a.86.86,0,0,1-.89-.84V75.76a9.15,9.15,0,0,1,.17-1.92,3.29,3.29,0,0,1,.87-1.5,4.29,4.29,0,0,1,1.59-1.08,5.39,5.39,0,0,1,1.94-.35h.13a5.62,5.62,0,0,1,2.25.46,4.37,4.37,0,0,1,1.26.85.39.39,0,0,0,.55,0,5,5,0,0,1,1.26-.83,5.33,5.33,0,0,1,2.24-.48h.17a5,5,0,0,1,2.18.49,4.33,4.33,0,0,1,1.68,1.37,3.83,3.83,0,0,1,.58,1.37,8.65,8.65,0,0,1,.14,1.62V82A.86.86,0,0,1,247.94,82.83Zm-4.54-7.66a1.13,1.13,0,0,1,1.12.71,3.86,3.86,0,0,1,.13,1.16V82a.36.36,0,0,0,.37.36h2.92a.37.37,0,0,0,.37-.36V75.76a7.73,7.73,0,0,0-.13-1.53,3.19,3.19,0,0,0-.5-1.19,3.84,3.84,0,0,0-1.48-1.21,4.54,4.54,0,0,0-1.95-.43h-.17a4.79,4.79,0,0,0-2,.43,4.36,4.36,0,0,0-1.12.74.92.92,0,0,1-1.27,0,4.07,4.07,0,0,0-1.12-.75,5,5,0,0,0-2-.41h-.13a4.81,4.81,0,0,0-1.75.31,3.91,3.91,0,0,0-1.4,1,2.94,2.94,0,0,0-.75,1.29,8.12,8.12,0,0,0-.16,1.81V82a.37.37,0,0,0,.38.36h2.87A.37.37,0,0,0,236,82V77a3.25,3.25,0,0,1,.21-1.24,1,1,0,0,1,1.08-.63,1.13,1.13,0,0,1,1.12.71,3.55,3.55,0,0,1,.13,1.16V82a.37.37,0,0,0,.37.36h2.88a.37.37,0,0,0,.37-.36V77a3.25,3.25,0,0,1,.21-1.24A1,1,0,0,1,243.4,75.17Z"/><ellipse class="cls-1" cx="210.8" cy="81.24" rx="1.68" ry="1.59"/><path class="cls-2" d="M6.38,35.78,0,7.22H7.07l2.46,15c.11.67.24,1.55.38,2.65s.28,2.27.42,3.55l.05-.36c.34-3,.57-4.91.71-5.8l2.52-15h7.05L14.17,35.78Z"/><path class="cls-2" d="M23.29,35.78V7.22H30V35.78Z"/><path class="cls-2" d="M34.6,35.78V7.22H50.14v5.55h-8.9V18h8.22v5.73H41.24V30h8.9v5.81Z"/><path class="cls-2" d="M57.76,35.78v-23H52.42V7.22H70.08v5.55H64.46v23Z"/><path class="cls-2" d="M86.47,35.78v-23H81.13V7.22H98.78v5.55H93.16v23Z"/><path class="cls-2" d="M101.51,35.78V7.22h6.67V35.78Z"/><path class="cls-2" d="M112.82,35.78V7.22h15.54v5.55h-8.9V18h8.21v5.73h-8.21V30h8.9v5.81Z"/><path class="cls-2" d="M132.5,35.78V7.22h6.95L145,24.84q-.33-4.45-.49-7.68c-.1-2.15-.16-4-.16-5.45V7.22h6V35.78h-7l-5.58-18.16q.38,3.55.57,6.87T138.5,31v4.82Z"/><path class="cls-2" d="M179.86,35.78H165.15V7.22h6.68V30h8Z"/><path class="cls-2" d="M180.75,35.78,187,7.22h7.93l6.16,28.56h-6.68l-.83-5.47h-5.25l-.83,5.47ZM189,25.15h3.84l-1.91-12.46Z"/><path class="cls-2" d="M203.68,35.78V7.22h7.18a29.56,29.56,0,0,1,4.68.26,7.29,7.29,0,0,1,2.46.87,6.16,6.16,0,0,1,2.33,2.45,7.77,7.77,0,0,1,.79,3.6,7.22,7.22,0,0,1-.74,3.3A9.38,9.38,0,0,1,218,20.52a6.66,6.66,0,0,1,2.87,2.62,7.82,7.82,0,0,1,1,4,10.09,10.09,0,0,1-.65,3.61,8.6,8.6,0,0,1-1.82,2.92,6.28,6.28,0,0,1-2.74,1.65,19.4,19.4,0,0,1-5,.48Zm6.68-17.4h.43a4.29,4.29,0,0,0,2.9-.82,3.24,3.24,0,0,0,.94-2.55,2.9,2.9,0,0,0-.93-2.31,3.91,3.91,0,0,0-2.65-.81h-.43l-.24,0Zm0,12.35h.58a4.47,4.47,0,0,0,3.15-1,3.82,3.82,0,0,0,1.06-2.93,3.23,3.23,0,0,0-1-2.66,5.23,5.23,0,0,0-3.29-.84h-.46Z"/><path class="cls-2" d="M253.44,20.13V35.78h-4.6l-.3-1.78a6.67,6.67,0,0,1-2.21,1.71,6.42,6.42,0,0,1-2.76.57,7.9,7.9,0,0,1-3.21-.65,7.4,7.4,0,0,1-2.57-1.87,8.6,8.6,0,0,1-1.91-4,45.61,45.61,0,0,1-.56-8.6,48.7,48.7,0,0,1,.39-6.92,10.24,10.24,0,0,1,1.21-3.89,7.49,7.49,0,0,1,3.14-2.82,10.55,10.55,0,0,1,4.64-1c2.81,0,4.92.77,6.35,2.29s2.13,3.81,2.13,6.84c0,.11,0,.28,0,.51s0,.41,0,.55H246.8v-.36a8.49,8.49,0,0,0-.53-3.52,1.77,1.77,0,0,0-1.71-1.06,1.94,1.94,0,0,0-1.94,1.3q-.52,1.3-.53,6.06v4.79q0,4.77.5,6a1.83,1.83,0,0,0,1.85,1.24,2.1,2.1,0,0,0,2-1.09,7.63,7.63,0,0,0,.61-3.55c0-.37,0-.65,0-.85a5.17,5.17,0,0,0,0-.57h-2.61v-5Z"/><path class="cls-2" d="M257.78,35.78V7.22h7.51a30.57,30.57,0,0,1,5.36.34,6.33,6.33,0,0,1,2.7,1.18,6.13,6.13,0,0,1,1.83,2.47,9.15,9.15,0,0,1,.6,3.48,8.88,8.88,0,0,1-.86,4.14,6.77,6.77,0,0,1-2.68,2.74c2.07.92,3.15,3.09,3.27,6.51v.1c0,.35,0,.87,0,1.55,0,3.22.58,5.23,1.6,6.05h-7.81a12.38,12.38,0,0,1-.38-1.87,16.89,16.89,0,0,1-.12-2.08c0-.46,0-1,0-1.66s0-1.07,0-1.27a6.68,6.68,0,0,0-.68-3.58,2.84,2.84,0,0,0-2.47-1h-1.37V35.78Zm6.6-16.67a3.56,3.56,0,0,1,.43,0h.4a4.13,4.13,0,0,0,2.94-.83,3.81,3.81,0,0,0,.86-2.82,3.32,3.32,0,0,0-.86-2.6,4.36,4.36,0,0,0-2.94-.77h-.4a3.56,3.56,0,0,1-.43,0Z"/><path class="cls-2" d="M279.45,21.5a53.38,53.38,0,0,1,.38-7.53,9.6,9.6,0,0,1,1.22-3.71,7.51,7.51,0,0,1,3.21-2.81A11.29,11.29,0,0,1,289,6.53a11.16,11.16,0,0,1,4.76.92A7.61,7.61,0,0,1,297,10.26,9.58,9.58,0,0,1,298.22,14a53.62,53.62,0,0,1,.37,7.51,53.65,53.65,0,0,1-.37,7.5A9.63,9.63,0,0,1,297,32.74a7.48,7.48,0,0,1-3.18,2.8,12.77,12.77,0,0,1-9.52,0,7.62,7.62,0,0,1-3.21-2.8A9.6,9.6,0,0,1,279.83,29,53.38,53.38,0,0,1,279.45,21.5Zm12.32,2.58V18.92q0-4.74-.6-5.87A2.28,2.28,0,0,0,289,11.93a2.19,2.19,0,0,0-2.14,1.15c-.39.77-.59,2.71-.59,5.84v5.16q0,4.64.59,5.81a2.59,2.59,0,0,0,4.32,0Q291.77,28.76,291.77,24.08Z"/><path class="cls-2" d="M302.67,7.22h6.75v17.9c0,2.7.17,4.38.51,5a2.16,2.16,0,0,0,3.63,0c.33-.66.5-2.33.5-5V7.22h6.62V25.45a29.07,29.07,0,0,1-.27,4.63,8.76,8.76,0,0,1-.88,2.66,6.27,6.27,0,0,1-2.95,2.83,12.15,12.15,0,0,1-5,.89,11.05,11.05,0,0,1-4.65-.84,6.36,6.36,0,0,1-2.86-2.7A9.62,9.62,0,0,1,303,29.55a52.76,52.76,0,0,1-.31-7Z"/><path class="cls-2" d="M325.31,35.78V7.22h6.57a32.93,32.93,0,0,1,5.37.32,8.37,8.37,0,0,1,2.92,1,6.11,6.11,0,0,1,2.4,2.87,11.35,11.35,0,0,1,.82,4.53q0,4.33-2.29,6.59t-6.72,2.26H332V35.78ZM332,19.52l.34,0,.55,0a3.82,3.82,0,0,0,2.89-.94,4.26,4.26,0,0,0,.89-3,3,3,0,0,0-.95-2.48,5.06,5.06,0,0,0-3.15-.76H332Z"/><path class="cls-2" d="M351.32,0a7.18,7.18,0,0,1,5.19,2.24A6.94,6.94,0,0,1,358,4.54a7.23,7.23,0,0,1,.52,2.69,7.13,7.13,0,0,1-2,5,7,7,0,0,1-2.36,1.64,7.23,7.23,0,0,1-2.86.57,6.86,6.86,0,0,1-2.81-.58,7.29,7.29,0,0,1-2.35-1.64,7,7,0,0,1-1.51-2.31,7.17,7.17,0,0,1-.51-2.68,7.3,7.3,0,0,1,.51-2.69,7,7,0,0,1,1.49-2.3A6.89,6.89,0,0,1,348.43.59,7.25,7.25,0,0,1,351.32,0m-4.65,2.61a6.36,6.36,0,0,0-1.37,2,6.54,6.54,0,0,0,0,5.16,6.55,6.55,0,0,0,1.5,2.13,6.81,6.81,0,0,0,2.09,1.35,6.32,6.32,0,0,0,2.37.45,6.53,6.53,0,0,0,2.41-.45A6.46,6.46,0,0,0,355.76,12a6.93,6.93,0,0,0,1.51-2.15,6.43,6.43,0,0,0,0-5.16,6.47,6.47,0,0,0-3.56-3.49,6.57,6.57,0,0,0-4.83,0,6.87,6.87,0,0,0-2.21,1.45M353,7.77l2.17,3.79h-2L351.13,8h-1.58v3.59h-1.74V2.88h3.79c2,0,3,.83,3,2.49a2.24,2.24,0,0,1-1.6,2.4m-3.49-1.43H352c.7,0,1.06-.32,1.08-.94s-.37-.87-1.06-.9h-2.45Z"/></g></g></svg>